<svg width="42" height="39" viewBox="0 0 42 39" fill="none" xmlns="https://www.w3.org/2000/svg">
<path d="M29.992 31V22.68L30.536 24.152L21.032 8.6H23.56L31.912 22.264H30.568L38.92 8.6H41.288L31.784 24.152L32.328 22.68V31H29.992Z" fill="white"/>
<path d="M17.824 8.88V21.872C17.824 24.5387 17.056 26.6187 15.52 28.112C13.984 29.584 11.808 30.32 8.992 30.32C6.92267 30.32 5.25867 29.9573 4 29.232C2.74133 28.4853 1.87733 27.4613 1.408 26.16C0.938667 24.8373 0.842667 23.3333 1.12 21.648L6.496 20.688C6.24 22.6293 6.32533 24.0053 6.752 24.816C7.2 25.6053 8.01067 26 9.184 26C10.336 26 11.1467 25.616 11.616 24.848C12.0853 24.08 12.32 22.896 12.32 21.296V8.88H17.824Z" fill="white"/>
</svg>
